# xmcd
# 
# Track frame offsets:
#     150
#     43075
#     80895
#     117740
#     173350
#     228915
#     266780
# 
# Disc length: 4285
# 
# Revision: 0
# Processed by: cddbd v1.5.2PL0 Copyright (c) Steve Scherf et al.
# Submitted via: BonkEnc v1.0.8
# 
DISCID=5c10bb07
DTITLE=Karen Armstrong - A History of God (disk 5)
DYEAR=1994
DGENRE=Audiobook
TTITLE0=A History of God
TTITLE1=A History of God
TTITLE2=A History of God
TTITLE3=A History of God
TTITLE4=A History of God
TTITLE5=A History of God
TTITLE6=A History of God
EXTD=
EXTT0=
EXTT1=
EXTT2=
EXTT3=
EXTT4=
EXTT5=
EXTT6=
PLAYORDER=
